<svg xmlns="http://www.w3.org/2000/svg" viewBox="0 0 320 512">
  <path fill="#000000" d="M208 80c0-26.5-21.5-48-48-48S112 53.5 112 80c0 19.3 11.4 35.9 27.9 43.6-.8 3.5-1.2 7.1-1.2 10.8 0 11.4 3.7 21.8 10 30-10.4 4.5-18.7 13.9-22.6 25.7-8.3-4.5-17.8-7.1-27.9-7.1C71.6 183 50 204.6 50 231s21.6 48 48 48c3.2 0 6.4-.3 9.4-1-.5 2.1-.8 4.3-.8 6.5 0 25.1 12.3 47.9 31.5 62.7C104.5 365 80 401 80 440c0 13.3 10.7 24 24 24h112c13.3 0 24-10.7 24-24 0-39-24.5-75-58.1-92.8 19.2-14.8 31.5-37.6 31.5-62.7 0-2.2-.3-4.4-.8-6.5 3-.7 6.2-1 9.4-1 26.4 0 48-21.6 48-48s-21.6-48-48-48c-10.1 0-19.6 2.6-27.9 7.1-3.9-11.8-12.2-21.2-22.6-25.7 6.3-8.2 10-18.6 10-30 0-3.7-.4-7.3-1.2-10.8 16.5-7.7 27.9-24.3 27.9-43.6z"/>
</svg>
